<?xml version="1.0" encoding="UTF-8" standalone="no"?>
<!DOCTYPE svg PUBLIC "-//W3C//DTD SVG 1.1//EN"
 "http://www.w3.org/Graphics/SVG/1.1/DTD/svg11.dtd">
<!-- Generated by graphviz version 2.47.3 (20210619.1520)
 -->
<!-- Title: dependencies Pages: 1 -->
<svg width="316pt" height="174pt"
 viewBox="0.00 0.00 316.00 173.80" xmlns="http://www.w3.org/2000/svg" xmlns:xlink="http://www.w3.org/1999/xlink">
<g id="graph0" class="graph" transform="scale(1 1) rotate(0) translate(4 169.8)">
<title>dependencies</title>
<polygon fill="white" stroke="transparent" points="-4,4 -4,-169.8 312,-169.8 312,4 -4,4"/>
<text text-anchor="middle" x="154" y="-8.2" font-family="sans-serif" font-size="14.00">dependencies</text>
<g id="clust1" class="cluster">
<title>cluster_FormPageModule</title>
<polygon fill="none" stroke="black" stroke-dasharray="1,5" points="8,-32.8 8,-157.8 300,-157.8 300,-32.8 8,-32.8"/>
</g>
<g id="clust2" class="cluster">
<title>cluster_FormPageModule_declarations</title>
<polygon fill="none" stroke="black" points="202,-40.8 202,-92.8 292,-92.8 292,-40.8 202,-40.8"/>
</g>
<g id="clust4" class="cluster">
<title>cluster_FormPageModule_imports</title>
<polygon fill="none" stroke="black" points="16,-40.8 16,-92.8 194,-92.8 194,-40.8 16,-40.8"/>
</g>
<!-- FormPage -->
<g id="node1" class="node">
<title>FormPage</title>
<polygon fill="#ffffb3" stroke="black" points="283.55,-84.8 210.45,-84.8 210.45,-48.8 283.55,-48.8 283.55,-84.8"/>
<text text-anchor="middle" x="247" y="-62.6" font-family="Times,serif" font-size="14.00">FormPage</text>
</g>
<!-- FormPageModule -->
<g id="node2" class="node">
<title>FormPageModule</title>
<polygon fill="#8dd3c7" stroke="black" points="227.6,-149.8 224.6,-153.8 203.6,-153.8 200.6,-149.8 110.4,-149.8 110.4,-113.8 227.6,-113.8 227.6,-149.8"/>
<text text-anchor="middle" x="169" y="-127.6" font-family="Times,serif" font-size="14.00">FormPageModule</text>
</g>
<!-- FormPage&#45;&gt;FormPageModule -->
<g id="edge1" class="edge">
<title>FormPage&#45;&gt;FormPageModule</title>
<path fill="none" stroke="black" d="M218.89,-84.91C218.89,-84.91 218.89,-103.79 218.89,-103.79"/>
<polygon fill="black" stroke="black" points="215.39,-103.79 218.89,-113.79 222.39,-103.79 215.39,-103.79"/>
</g>
<!-- FormPageRoutingModule -->
<g id="node3" class="node">
<title>FormPageRoutingModule</title>
<polygon fill="#8dd3c7" stroke="black" points="186.21,-84.8 183.21,-88.8 162.21,-88.8 159.21,-84.8 23.79,-84.8 23.79,-48.8 186.21,-48.8 186.21,-84.8"/>
<text text-anchor="middle" x="105" y="-62.6" font-family="Times,serif" font-size="14.00">FormPageRoutingModule</text>
</g>
<!-- FormPageRoutingModule&#45;&gt;FormPageModule -->
<g id="edge2" class="edge">
<title>FormPageRoutingModule&#45;&gt;FormPageModule</title>
<path fill="none" stroke="black" d="M148.28,-84.91C148.28,-84.91 148.28,-103.79 148.28,-103.79"/>
<polygon fill="black" stroke="black" points="144.78,-103.79 148.28,-113.79 151.78,-103.79 144.78,-103.79"/>
</g>
</g>
</svg>
