<?xml version="1.0" encoding="utf-8"?>
<!-- Generator: Adobe Illustrator 25.4.1, SVG Export Plug-In . SVG Version: 6.00 Build 0)  -->
<svg version="1.1" id="Layer_1" xmlns="http://www.w3.org/2000/svg" xmlns:xlink="http://www.w3.org/1999/xlink" x="0px" y="0px"
	 viewBox="0 0 897.6 540" style="enable-background:new 0 0 897.6 540;" xml:space="preserve">
<style type="text/css">
	.st0{fill:#FFFFFF;}
	.st1{enable-background:new    ;}
</style>
<g>
	<path class="st0" d="M27.8,4c2.5,5.6,4.8,10.4,6.7,15.4C42.6,41,57.2,57.5,75.3,71.2c23.4,17.7,49.6,29.9,77.1,39.6
		c32.5,11.5,66,19,100.2,23.6c13,1.8,26.1,3.1,39.2,4.2c2.7,0.2,3.2-0.6,3.1-3.1c-0.1-17,0-34.1,0-51.1c0-1.1,0-2.2,0-4
		c47.7,31.8,95,63.3,142.8,95.2c-47.6,31.8-94.9,63.3-142.2,94.8c-1-1.4-0.6-2.7-0.6-3.9c0-17.2-0.1-34.5,0-51.8
		c0-2.3-0.5-3-2.9-3.2c-37.7-2.6-74.9-8-111.5-17.6c-37.9-9.9-74.3-23.4-107.3-44.8c-19.7-12.8-37.4-27.9-49.7-48.4
		C8.9,76.4,6.9,51.2,18.6,25.2C21.6,18.4,24.5,11.6,27.8,4z"/>
</g>
<g>
	<path class="st0" d="M460.1,169.9c0.7,0.5,1,0.8,1.3,1.1c46.2,30.8,92.5,61.6,138.7,92.4c0.7,0.5,1.4,1.5,2.4,0.9s0.4-1.7,0.4-2.5
		c0-17.2,0.1-34.5,0-51.8c0-2.6,0.7-3.3,3.3-3.1c10.6,1,21.2,1.9,31.7,3.3c36.1,4.2,71.7,12.3,106,24.1c28,9.8,54.6,22.1,78.4,40.1
		c18,13.6,32.6,29.9,40.7,51.4c2,5.2,4.4,10.3,6.8,15.9c3.8-8.8,7.7-17,11-25.5c7.5-18.2,7.7-38.5,0.4-56.8
		c-8-20.7-22.3-36.5-39.2-50.2c-23.9-19.3-51.1-32.7-79.7-43.3c-50.1-18.6-102.1-27.9-155.2-31.6c-3.2-0.2-4.4-1-4.3-4.5
		c0.2-16.9,0.1-33.8,0-50.7c0-1.2,0.5-2.4-0.6-3.8C554.9,106.7,507.5,138.3,460.1,169.9z"/>
	<path class="st0" d="M460.1,169.9c47.5-31.6,94.8-63.2,142.1-94.8c1.1,1.4,0.6,2.7,0.6,3.8c0,16.9,0.2,33.8,0,50.7
		c0,3.6,1.1,4.3,4.3,4.5c53.1,3.7,105.1,13,155.2,31.6c28.6,10.6,55.8,24,79.7,43.3c16.9,13.7,31.2,29.5,39.2,50.2
		c7.3,18.2,7.1,38.6-0.5,56.8c-3.4,8.5-7.2,16.7-11,25.5c-2.4-5.6-4.9-10.6-6.8-15.9c-8.1-21.5-22.7-37.8-40.7-51.4
		c-23.8-17.9-50.4-30.2-78.4-40.1c-34.4-11.8-69.9-19.8-106-24.1c-10.6-1.3-21.1-2.2-31.7-3.3c-2.6-0.2-3.3,0.4-3.3,3.1
		c0.1,17.2,0,34.5,0,51.8c0,0.9,0.5,2-0.4,2.5c-0.8,0.6-1.7-0.5-2.4-0.9c-46.2-30.7-92.5-61.5-138.6-92.3
		C461.1,170.8,460.8,170.4,460.1,169.9z"/>
</g>
<g class="st1">
	<path class="st0" d="M15.9,517.2h-5.7v-30.7h5.7V517.2z"/>
	<path class="st0" d="M26.4,486.5c0.2,0,0.3,0.1,0.5,0.1c0.1,0.1,0.3,0.2,0.4,0.3c0.1,0.1,0.3,0.3,0.4,0.5l16.1,20.5
		c-0.1-0.5-0.1-1-0.1-1.5c0-0.5,0-0.9,0-1.3v-18.7h5v30.7h-3c-0.5,0-0.8-0.1-1.1-0.2c-0.3-0.1-0.6-0.4-0.9-0.8l-16.1-20.5
		c0,0.5,0.1,0.9,0.1,1.3c0,0.4,0,0.9,0,1.2v18.9h-5v-30.7h3C26,486.5,26.2,486.5,26.4,486.5z"/>
	<path class="st0" d="M76,510c0.3,0,0.6,0.1,0.8,0.4l2.3,2.4c-1.2,1.5-2.8,2.7-4.6,3.5c-1.8,0.8-4,1.2-6.6,1.2
		c-2.3,0-4.3-0.4-6.2-1.2c-1.8-0.8-3.4-1.9-4.7-3.3c-1.3-1.4-2.3-3-3-5c-0.7-1.9-1-4-1-6.3c0-2.3,0.4-4.4,1.1-6.3
		c0.8-1.9,1.8-3.6,3.2-5c1.4-1.4,3-2.5,5-3.2c1.9-0.8,4.1-1.2,6.4-1.2c2.3,0,4.3,0.4,6,1.1s3.2,1.7,4.4,2.9l-1.9,2.7
		c-0.1,0.2-0.3,0.3-0.4,0.4c-0.2,0.1-0.4,0.2-0.7,0.2c-0.3,0-0.7-0.1-1-0.4s-0.8-0.5-1.3-0.8c-0.5-0.3-1.2-0.6-2-0.8
		c-0.8-0.3-1.8-0.4-3-0.4c-1.4,0-2.8,0.3-4,0.8c-1.2,0.5-2.3,1.2-3.1,2.2s-1.6,2.1-2,3.4c-0.5,1.3-0.7,2.8-0.7,4.5
		c0,1.7,0.2,3.3,0.7,4.6c0.5,1.3,1.2,2.5,2,3.4s1.8,1.6,3,2.1c1.1,0.5,2.4,0.7,3.7,0.7c0.8,0,1.5,0,2.1-0.1c0.6-0.1,1.2-0.2,1.7-0.4
		c0.5-0.2,1-0.4,1.5-0.7s0.9-0.6,1.4-1.1c0.1-0.1,0.3-0.2,0.4-0.3C75.7,510,75.9,510,76,510z"/>
	<path class="st0" d="M89.3,505.2v12h-5.7v-30.7H93c2.1,0,3.9,0.2,5.4,0.6c1.5,0.4,2.7,1,3.7,1.8c1,0.8,1.7,1.7,2.1,2.8
		c0.4,1.1,0.7,2.3,0.7,3.6c0,1-0.2,2-0.5,2.9s-0.7,1.8-1.3,2.5c-0.6,0.8-1.3,1.4-2.1,2c-0.8,0.6-1.8,1-2.9,1.4
		c0.7,0.4,1.3,1,1.9,1.8l7.7,11.3h-5.1c-0.5,0-0.9-0.1-1.3-0.3c-0.3-0.2-0.6-0.5-0.9-0.8l-6.5-9.8c-0.2-0.4-0.5-0.6-0.8-0.8
		c-0.3-0.2-0.7-0.2-1.3-0.2H89.3z M89.3,501.1h3.6c1.1,0,2-0.1,2.8-0.4c0.8-0.3,1.5-0.6,2-1.1c0.5-0.5,0.9-1,1.2-1.7
		c0.3-0.7,0.4-1.4,0.4-2.1c0-1.6-0.5-2.8-1.5-3.6c-1-0.8-2.6-1.3-4.7-1.3h-3.7V501.1z"/>
	<path class="st0" d="M130.6,486.5v4.5H117v8.5h10.7v4.4H117v8.7h13.6v4.6h-19.4v-30.7H130.6z"/>
	<path class="st0" d="M162.6,517.2h-4.4c-0.5,0-0.9-0.1-1.2-0.4c-0.3-0.2-0.5-0.6-0.7-0.9l-2.3-6.3h-12.7l-2.3,6.3
		c-0.1,0.3-0.3,0.6-0.7,0.9c-0.3,0.3-0.7,0.4-1.2,0.4h-4.4l12.1-30.7h5.8L162.6,517.2z M142.7,505.6h9.8l-3.7-10.2
		c-0.2-0.5-0.4-1-0.6-1.6c-0.2-0.6-0.4-1.3-0.6-2c-0.2,0.7-0.4,1.4-0.6,2c-0.2,0.6-0.4,1.2-0.6,1.6L142.7,505.6z"/>
	<path class="st0" d="M182.2,492.1c-0.2,0.3-0.3,0.5-0.5,0.7c-0.2,0.1-0.5,0.2-0.7,0.2s-0.6-0.1-1-0.3s-0.8-0.5-1.3-0.7
		c-0.5-0.3-1-0.5-1.7-0.7s-1.4-0.3-2.3-0.3c-0.8,0-1.5,0.1-2.1,0.3c-0.6,0.2-1.1,0.5-1.5,0.8c-0.4,0.3-0.7,0.7-0.9,1.2
		c-0.2,0.5-0.3,1-0.3,1.6c0,0.7,0.2,1.3,0.6,1.8c0.4,0.5,0.9,0.9,1.6,1.2s1.4,0.6,2.3,0.9c0.9,0.3,1.7,0.6,2.6,0.9
		c0.9,0.3,1.8,0.7,2.6,1.1c0.8,0.4,1.6,0.9,2.3,1.5s1.2,1.4,1.6,2.3c0.4,0.9,0.6,2,0.6,3.3c0,1.4-0.2,2.7-0.7,3.9
		c-0.5,1.2-1.2,2.3-2.1,3.2c-0.9,0.9-2,1.6-3.3,2.1s-2.8,0.8-4.5,0.8c-1,0-1.9-0.1-2.9-0.3c-0.9-0.2-1.9-0.5-2.7-0.8
		c-0.9-0.4-1.7-0.8-2.4-1.3s-1.4-1-2-1.7l1.7-2.7c0.2-0.2,0.3-0.4,0.6-0.5c0.2-0.1,0.5-0.2,0.7-0.2c0.4,0,0.7,0.1,1.1,0.4
		s0.9,0.6,1.5,1c0.6,0.4,1.2,0.7,2,1s1.7,0.4,2.7,0.4c1.6,0,2.9-0.4,3.8-1.2c0.9-0.8,1.3-1.9,1.3-3.3c0-0.8-0.2-1.5-0.6-2
		c-0.4-0.5-0.9-0.9-1.6-1.3c-0.7-0.3-1.4-0.6-2.3-0.9c-0.8-0.2-1.7-0.5-2.6-0.8c-0.9-0.3-1.7-0.6-2.6-1c-0.9-0.4-1.6-0.9-2.3-1.6
		c-0.7-0.6-1.2-1.4-1.6-2.4c-0.4-1-0.6-2.1-0.6-3.5c0-1.1,0.2-2.2,0.7-3.3s1.1-2,2-2.8c0.9-0.8,1.9-1.5,3.2-2
		c1.2-0.5,2.7-0.7,4.3-0.7c1.8,0,3.5,0.3,5,0.8c1.5,0.6,2.8,1.4,3.9,2.4L182.2,492.1z"/>
	<path class="st0" d="M195,517.2h-5.7v-30.7h5.7V517.2z"/>
	<path class="st0" d="M205.5,486.5c0.2,0,0.3,0.1,0.5,0.1c0.1,0.1,0.3,0.2,0.4,0.3c0.1,0.1,0.3,0.3,0.4,0.5l16.1,20.5
		c-0.1-0.5-0.1-1-0.1-1.5c0-0.5,0-0.9,0-1.3v-18.7h5v30.7h-3c-0.5,0-0.8-0.1-1.1-0.2c-0.3-0.1-0.6-0.4-0.9-0.8l-16.1-20.5
		c0,0.5,0.1,0.9,0.1,1.3c0,0.4,0,0.9,0,1.2v18.9h-5v-30.7h3C205.1,486.5,205.4,486.5,205.5,486.5z"/>
	<path class="st0" d="M248.1,513c1.3,0,2.4-0.1,3.4-0.4c1-0.2,1.9-0.6,2.7-1v-5.6h-3.8c-0.4,0-0.7-0.1-0.9-0.3s-0.3-0.5-0.3-0.8
		v-3.2h10.2v12.4c-0.8,0.6-1.6,1.1-2.4,1.5c-0.8,0.4-1.7,0.8-2.7,1c-1,0.3-2,0.5-3.1,0.6s-2.3,0.2-3.5,0.2c-2.2,0-4.3-0.4-6.2-1.2
		c-1.9-0.8-3.5-1.9-4.9-3.3c-1.4-1.4-2.4-3-3.2-5c-0.8-1.9-1.2-4-1.2-6.3c0-2.3,0.4-4.4,1.1-6.4c0.8-1.9,1.8-3.6,3.2-5
		c1.4-1.4,3.1-2.5,5-3.2c2-0.8,4.2-1.1,6.6-1.1c2.5,0,4.7,0.4,6.5,1.1c1.8,0.7,3.4,1.7,4.7,2.9l-1.7,2.6c-0.3,0.5-0.8,0.8-1.3,0.8
		c-0.3,0-0.7-0.1-1-0.3c-0.5-0.3-0.9-0.5-1.4-0.8c-0.5-0.3-1-0.5-1.6-0.7c-0.6-0.2-1.2-0.4-1.9-0.5c-0.7-0.1-1.5-0.2-2.5-0.2
		c-1.5,0-2.9,0.3-4.1,0.8c-1.2,0.5-2.3,1.2-3.1,2.2c-0.9,0.9-1.5,2.1-2,3.4c-0.5,1.3-0.7,2.8-0.7,4.5c0,1.8,0.2,3.3,0.7,4.7
		c0.5,1.4,1.2,2.5,2.1,3.5s2,1.7,3.2,2.2S246.7,513,248.1,513z"/>
	<path class="st0" d="M302.4,501.8c0,1.4-0.1,2.7-0.4,3.9s-0.7,2.4-1.2,3.5c-0.5,1.1-1.2,2.1-1.9,3c-0.8,0.9-1.6,1.7-2.6,2.4
		l7.8,8.5h-4.7c-0.7,0-1.3-0.1-1.8-0.3c-0.5-0.2-1-0.5-1.5-1l-4.5-5c-0.7,0.2-1.5,0.3-2.2,0.4c-0.8,0.1-1.5,0.1-2.4,0.1
		c-2.3,0-4.4-0.4-6.4-1.2c-1.9-0.8-3.6-1.9-4.9-3.3c-1.4-1.4-2.4-3.1-3.2-5s-1.1-4-1.1-6.3c0-2.3,0.4-4.3,1.1-6.3
		c0.8-1.9,1.8-3.6,3.2-5c1.4-1.4,3-2.5,4.9-3.3c1.9-0.8,4-1.2,6.4-1.2c2.3,0,4.4,0.4,6.4,1.2c1.9,0.8,3.5,1.9,4.9,3.3
		c1.4,1.4,2.4,3.1,3.2,5C302.1,497.5,302.4,499.6,302.4,501.8z M296.6,501.8c0-1.7-0.2-3.2-0.7-4.5s-1.1-2.5-1.9-3.4
		c-0.8-0.9-1.9-1.7-3-2.1c-1.2-0.5-2.5-0.7-4-0.7c-1.5,0-2.9,0.2-4.1,0.7c-1.2,0.5-2.2,1.2-3.1,2.1c-0.8,0.9-1.5,2.1-1.9,3.4
		s-0.7,2.9-0.7,4.5c0,1.7,0.2,3.2,0.7,4.5s1.1,2.5,1.9,3.4s1.9,1.6,3.1,2.1c1.2,0.5,2.6,0.7,4.1,0.7c1.5,0,2.9-0.2,4-0.7
		s2.2-1.2,3-2.1c0.8-0.9,1.5-2.1,1.9-3.4S296.6,503.5,296.6,501.8z"/>
	<path class="st0" d="M319.3,512.6c1.1,0,2.1-0.2,3-0.6c0.9-0.4,1.6-0.9,2.2-1.6c0.6-0.7,1.1-1.5,1.4-2.4c0.3-0.9,0.5-2,0.5-3.2
		v-18.4h5.7v18.4c0,1.8-0.3,3.5-0.9,5.1c-0.6,1.6-1.4,2.9-2.5,4c-1.1,1.1-2.4,2-4,2.6c-1.6,0.6-3.3,0.9-5.3,0.9s-3.7-0.3-5.3-0.9
		c-1.6-0.6-2.9-1.5-4-2.6c-1.1-1.1-1.9-2.5-2.5-4c-0.6-1.6-0.9-3.2-0.9-5.1v-18.4h5.7v18.4c0,1.2,0.2,2.2,0.5,3.2
		c0.3,1,0.8,1.8,1.4,2.4c0.6,0.7,1.3,1.2,2.2,1.6C317.2,512.4,318.2,512.6,319.3,512.6z"/>
	<path class="st0" d="M363.8,517.2h-4.4c-0.5,0-0.9-0.1-1.2-0.4c-0.3-0.2-0.5-0.6-0.7-0.9l-2.3-6.3h-12.7l-2.3,6.3
		c-0.1,0.3-0.3,0.6-0.7,0.9c-0.3,0.3-0.7,0.4-1.2,0.4h-4.4l12.1-30.7h5.8L363.8,517.2z M343.9,505.6h9.8l-3.7-10.2
		c-0.2-0.5-0.4-1-0.6-1.6c-0.2-0.6-0.4-1.3-0.6-2c-0.2,0.7-0.4,1.4-0.6,2c-0.2,0.6-0.4,1.2-0.6,1.6L343.9,505.6z"/>
	<path class="st0" d="M372.7,512.5H385v4.7h-18v-30.7h5.7V512.5z"/>
	<path class="st0" d="M395.4,517.2h-5.7v-30.7h5.7V517.2z"/>
	<path class="st0" d="M423.9,486.5v4.7h-9.2v26H409v-26h-9.3v-4.7H423.9z"/>
	<path class="st0" d="M441.2,505.3v11.9h-5.7v-11.9l-11.2-18.8h5c0.5,0,0.9,0.1,1.2,0.4c0.3,0.2,0.5,0.5,0.7,0.9l5.6,10.3
		c0.3,0.6,0.6,1.2,0.8,1.7c0.2,0.5,0.5,1.1,0.7,1.6c0.2-0.5,0.4-1.1,0.6-1.6c0.2-0.5,0.5-1.1,0.8-1.7l5.6-10.3
		c0.2-0.3,0.4-0.6,0.7-0.9c0.3-0.3,0.7-0.4,1.2-0.4h5.1L441.2,505.3z"/>
	<path class="st0" d="M493,501.8c0,2.3-0.4,4.3-1.1,6.3s-1.8,3.6-3.2,5c-1.4,1.4-3,2.5-4.9,3.3c-1.9,0.8-4,1.2-6.4,1.2
		c-2.3,0-4.4-0.4-6.4-1.2c-1.9-0.8-3.6-1.9-4.9-3.3c-1.4-1.4-2.4-3.1-3.2-5s-1.1-4-1.1-6.3c0-2.3,0.4-4.3,1.1-6.3
		c0.8-1.9,1.8-3.6,3.2-5c1.4-1.4,3-2.5,4.9-3.3c1.9-0.8,4-1.2,6.4-1.2c2.3,0,4.4,0.4,6.4,1.2c1.9,0.8,3.5,1.9,4.9,3.3
		c1.4,1.4,2.4,3.1,3.2,5C492.7,497.5,493,499.6,493,501.8z M487.2,501.8c0-1.7-0.2-3.2-0.7-4.5s-1.1-2.5-1.9-3.4
		c-0.8-0.9-1.9-1.7-3-2.1c-1.2-0.5-2.5-0.7-4-0.7c-1.5,0-2.9,0.2-4.1,0.7c-1.2,0.5-2.2,1.2-3.1,2.1c-0.8,0.9-1.5,2.1-1.9,3.4
		s-0.7,2.9-0.7,4.5c0,1.7,0.2,3.2,0.7,4.5s1.1,2.5,1.9,3.4s1.9,1.6,3.1,2.1c1.2,0.5,2.6,0.7,4.1,0.7c1.5,0,2.9-0.2,4-0.7
		s2.2-1.2,3-2.1c0.8-0.9,1.5-2.1,1.9-3.4S487.2,503.5,487.2,501.8z"/>
	<path class="st0" d="M516.9,486.5v4.5h-13.6v9.1h11.5v4.6h-11.5v12.5h-5.8v-30.7H516.9z"/>
	<path class="st0" d="M536.1,517.2h-5.7v-30.7h5.7V517.2z"/>
	<path class="st0" d="M546.6,486.5c0.2,0,0.3,0.1,0.5,0.1c0.1,0.1,0.3,0.2,0.4,0.3c0.1,0.1,0.3,0.3,0.4,0.5l16.1,20.5
		c-0.1-0.5-0.1-1-0.1-1.5c0-0.5,0-0.9,0-1.3v-18.7h5v30.7h-3c-0.5,0-0.8-0.1-1.1-0.2c-0.3-0.1-0.6-0.4-0.9-0.8l-16.1-20.5
		c0,0.5,0.1,0.9,0.1,1.3c0,0.4,0,0.9,0,1.2v18.9h-5v-30.7h3C546.2,486.5,546.4,486.5,546.6,486.5z"/>
	<path class="st0" d="M602.4,501.8c0,2.3-0.4,4.3-1.1,6.2c-0.8,1.9-1.8,3.5-3.2,4.9c-1.4,1.4-3,2.4-4.9,3.2c-1.9,0.8-4,1.1-6.4,1.1
		h-11.7v-30.7h11.7c2.3,0,4.4,0.4,6.4,1.1c1.9,0.8,3.5,1.8,4.9,3.2c1.4,1.4,2.4,3,3.2,4.9C602,497.5,602.4,499.6,602.4,501.8z
		 M596.5,501.8c0-1.7-0.2-3.2-0.7-4.5c-0.5-1.3-1.1-2.5-1.9-3.4s-1.9-1.6-3-2.1c-1.2-0.5-2.5-0.7-4-0.7h-6v21.6h6
		c1.5,0,2.9-0.2,4-0.7c1.2-0.5,2.2-1.2,3-2.1s1.5-2.1,1.9-3.4C596.3,505,596.5,503.5,596.5,501.8z"/>
	<path class="st0" d="M636.3,501.8c0,2.3-0.4,4.3-1.1,6.3s-1.8,3.6-3.2,5c-1.4,1.4-3,2.5-4.9,3.3c-1.9,0.8-4,1.2-6.4,1.2
		c-2.3,0-4.4-0.4-6.4-1.2c-1.9-0.8-3.6-1.9-4.9-3.3c-1.4-1.4-2.4-3.1-3.2-5s-1.1-4-1.1-6.3c0-2.3,0.4-4.3,1.1-6.3
		c0.8-1.9,1.8-3.6,3.2-5c1.4-1.4,3-2.5,4.9-3.3c1.9-0.8,4-1.2,6.4-1.2c2.3,0,4.4,0.4,6.4,1.2c1.9,0.8,3.5,1.9,4.9,3.3
		c1.4,1.4,2.4,3.1,3.2,5C636,497.5,636.3,499.6,636.3,501.8z M630.5,501.8c0-1.7-0.2-3.2-0.7-4.5s-1.1-2.5-1.9-3.4
		c-0.8-0.9-1.9-1.7-3-2.1c-1.2-0.5-2.5-0.7-4-0.7c-1.5,0-2.9,0.2-4.1,0.7c-1.2,0.5-2.2,1.2-3.1,2.1c-0.8,0.9-1.5,2.1-1.9,3.4
		s-0.7,2.9-0.7,4.5c0,1.7,0.2,3.2,0.7,4.5s1.1,2.5,1.9,3.4s1.9,1.6,3.1,2.1c1.2,0.5,2.6,0.7,4.1,0.7c1.5,0,2.9-0.2,4-0.7
		s2.2-1.2,3-2.1c0.8-0.9,1.5-2.1,1.9-3.4S630.5,503.5,630.5,501.8z"/>
	<path class="st0" d="M670.3,501.8c0,2.3-0.4,4.3-1.1,6.3s-1.8,3.6-3.2,5c-1.4,1.4-3,2.5-4.9,3.3c-1.9,0.8-4,1.2-6.4,1.2
		c-2.3,0-4.4-0.4-6.4-1.2c-1.9-0.8-3.6-1.9-4.9-3.3c-1.4-1.4-2.4-3.1-3.2-5s-1.1-4-1.1-6.3c0-2.3,0.4-4.3,1.1-6.3
		c0.8-1.9,1.8-3.6,3.2-5c1.4-1.4,3-2.5,4.9-3.3c1.9-0.8,4-1.2,6.4-1.2c2.3,0,4.4,0.4,6.4,1.2c1.9,0.8,3.5,1.9,4.9,3.3
		c1.4,1.4,2.4,3.1,3.2,5C669.9,497.5,670.3,499.6,670.3,501.8z M664.4,501.8c0-1.7-0.2-3.2-0.7-4.5s-1.1-2.5-1.9-3.4
		c-0.8-0.9-1.9-1.7-3-2.1c-1.2-0.5-2.5-0.7-4-0.7c-1.5,0-2.9,0.2-4.1,0.7c-1.2,0.5-2.2,1.2-3.1,2.1c-0.8,0.9-1.5,2.1-1.9,3.4
		s-0.7,2.9-0.7,4.5c0,1.7,0.2,3.2,0.7,4.5s1.1,2.5,1.9,3.4s1.9,1.6,3.1,2.1c1.2,0.5,2.6,0.7,4.1,0.7c1.5,0,2.9-0.2,4-0.7
		s2.2-1.2,3-2.1c0.8-0.9,1.5-2.1,1.9-3.4S664.4,503.5,664.4,501.8z"/>
	<path class="st0" d="M680.7,505.2v12H675v-30.7h9.4c2.1,0,3.9,0.2,5.4,0.6c1.5,0.4,2.7,1,3.7,1.8c1,0.8,1.7,1.7,2.1,2.8
		c0.4,1.1,0.7,2.3,0.7,3.6c0,1-0.2,2-0.5,2.9s-0.7,1.8-1.3,2.5c-0.6,0.8-1.3,1.4-2.1,2c-0.8,0.6-1.8,1-2.9,1.4
		c0.7,0.4,1.3,1,1.9,1.8l7.7,11.3h-5.1c-0.5,0-0.9-0.1-1.3-0.3c-0.3-0.2-0.6-0.5-0.9-0.8l-6.5-9.8c-0.2-0.4-0.5-0.6-0.8-0.8
		c-0.3-0.2-0.7-0.2-1.3-0.2H680.7z M680.7,501.1h3.6c1.1,0,2-0.1,2.8-0.4c0.8-0.3,1.5-0.6,2-1.1c0.5-0.5,0.9-1,1.2-1.7
		c0.3-0.7,0.4-1.4,0.4-2.1c0-1.6-0.5-2.8-1.5-3.6c-1-0.8-2.6-1.3-4.7-1.3h-3.7V501.1z"/>
	<path class="st0" d="M732,510c0.3,0,0.6,0.1,0.8,0.4l2.3,2.4c-1.2,1.5-2.8,2.7-4.6,3.5c-1.8,0.8-4,1.2-6.6,1.2
		c-2.3,0-4.3-0.4-6.2-1.2c-1.8-0.8-3.4-1.9-4.7-3.3c-1.3-1.4-2.3-3-3-5c-0.7-1.9-1-4-1-6.3c0-2.3,0.4-4.4,1.1-6.3
		c0.8-1.9,1.8-3.6,3.2-5c1.4-1.4,3-2.5,5-3.2c1.9-0.8,4.1-1.2,6.4-1.2c2.3,0,4.3,0.4,6,1.1s3.2,1.7,4.4,2.9l-1.9,2.7
		c-0.1,0.2-0.3,0.3-0.4,0.4c-0.2,0.1-0.4,0.2-0.7,0.2c-0.3,0-0.7-0.1-1-0.4s-0.8-0.5-1.3-0.8c-0.5-0.3-1.2-0.6-2-0.8
		c-0.8-0.3-1.8-0.4-3-0.4c-1.4,0-2.8,0.3-4,0.8c-1.2,0.5-2.3,1.2-3.1,2.2s-1.6,2.1-2,3.4c-0.5,1.3-0.7,2.8-0.7,4.5
		c0,1.7,0.2,3.3,0.7,4.6c0.5,1.3,1.2,2.5,2,3.4s1.8,1.6,3,2.1c1.1,0.5,2.4,0.7,3.7,0.7c0.8,0,1.5,0,2.1-0.1c0.6-0.1,1.2-0.2,1.7-0.4
		c0.5-0.2,1-0.4,1.5-0.7s0.9-0.6,1.4-1.1c0.1-0.1,0.3-0.2,0.4-0.3C731.6,510,731.8,510,732,510z"/>
	<path class="st0" d="M745.1,512.5h12.3v4.7h-18v-30.7h5.7V512.5z"/>
	<path class="st0" d="M767.8,517.2H762v-30.7h5.7V517.2z"/>
	<path class="st0" d="M790.8,505.9c0.2,0.5,0.4,1,0.6,1.5c0.2-0.5,0.4-1,0.6-1.5c0.2-0.5,0.4-1,0.7-1.4l9.1-17
		c0.1-0.2,0.2-0.4,0.4-0.5c0.1-0.1,0.3-0.2,0.4-0.3c0.1-0.1,0.3-0.1,0.5-0.1c0.2,0,0.4,0,0.7,0h4.3v30.7h-5v-19.8c0-0.4,0-0.8,0-1.2
		s0.1-0.9,0.1-1.3l-9.3,17.4c-0.2,0.4-0.5,0.7-0.8,0.9s-0.7,0.3-1.2,0.3H791c-0.5,0-0.9-0.1-1.2-0.3s-0.6-0.5-0.8-0.9l-9.4-17.5
		c0.1,0.5,0.1,0.9,0.1,1.4c0,0.4,0,0.9,0,1.2v19.8h-5v-30.7h4.3c0.3,0,0.5,0,0.7,0c0.2,0,0.4,0,0.5,0.1s0.3,0.1,0.4,0.3
		c0.1,0.1,0.2,0.3,0.4,0.5l9.2,17.1C790.3,504.9,790.6,505.4,790.8,505.9z"/>
	<path class="st0" d="M841.2,517.2h-4.4c-0.5,0-0.9-0.1-1.2-0.4c-0.3-0.2-0.5-0.6-0.7-0.9l-2.3-6.3h-12.7l-2.3,6.3
		c-0.1,0.3-0.3,0.6-0.7,0.9c-0.3,0.3-0.7,0.4-1.2,0.4h-4.4l12.1-30.7h5.8L841.2,517.2z M821.3,505.6h9.8l-3.7-10.2
		c-0.2-0.5-0.4-1-0.6-1.6c-0.2-0.6-0.4-1.3-0.6-2c-0.2,0.7-0.4,1.4-0.6,2c-0.2,0.6-0.4,1.2-0.6,1.6L821.3,505.6z"/>
	<path class="st0" d="M862.9,486.5v4.7h-9.2v26h-5.7v-26h-9.3v-4.7H862.9z"/>
	<path class="st0" d="M885.9,486.5v4.5h-13.6v8.5H883v4.4h-10.7v8.7h13.6v4.6h-19.4v-30.7H885.9z"/>
</g>
<g class="st1">
	<path class="st0" d="M71,428.4c0.5,0,1,0.1,1.5,0.3s1,0.5,1.4,0.9l8.2,8.6c-3.6,4.7-8,8.2-13.4,10.6c-5.4,2.4-11.7,3.6-19.1,3.6
		c-6.7,0-12.8-1.1-18.1-3.4c-5.3-2.3-9.9-5.5-13.6-9.5c-3.7-4-6.6-8.8-8.5-14.4c-2-5.5-3-11.5-3-18c0-6.6,1.1-12.7,3.4-18.2
		c2.3-5.5,5.4-10.3,9.5-14.3c4.1-4,9-7.1,14.6-9.4c5.7-2.2,11.9-3.3,18.8-3.3c3.3,0,6.5,0.3,9.4,0.9c2.9,0.6,5.7,1.4,8.2,2.4
		s4.9,2.3,7.1,3.7c2.1,1.4,4.1,3,5.7,4.8l-6.9,9.3c-0.4,0.6-1,1.1-1.6,1.6c-0.6,0.5-1.5,0.7-2.6,0.7c-0.7,0-1.4-0.2-2.1-0.5
		c-0.6-0.3-1.3-0.7-2.1-1.2c-0.7-0.5-1.5-1-2.4-1.5c-0.9-0.5-1.9-1.1-3.1-1.5c-1.2-0.5-2.6-0.9-4.2-1.2c-1.6-0.3-3.5-0.5-5.6-0.5
		c-3.7,0-7.1,0.7-10.2,2c-3.1,1.3-5.7,3.2-7.9,5.7c-2.2,2.5-3.9,5.4-5.2,8.9c-1.2,3.5-1.9,7.4-1.9,11.7c0,4.5,0.6,8.6,1.9,12.1
		c1.2,3.5,2.9,6.5,5,8.9c2.1,2.4,4.6,4.2,7.5,5.5c2.8,1.3,5.9,1.9,9.1,1.9c1.9,0,3.6-0.1,5.1-0.3c1.5-0.2,3-0.5,4.3-0.9
		c1.3-0.4,2.6-1,3.8-1.7c1.2-0.7,2.4-1.6,3.6-2.6c0.5-0.4,1-0.7,1.6-1C69.8,428.5,70.4,428.4,71,428.4z"/>
	<path class="st0" d="M111.9,434.9h32.8v16.4H91.4v-88.6h20.6V434.9z"/>
	<path class="st0" d="M177,451.3h-20.7v-88.6H177V451.3z"/>
	<path class="st0" d="M241.1,415.6c0.8,1.7,1.5,3.4,2.2,5.1c0.7-1.8,1.4-3.5,2.2-5.2c0.8-1.7,1.6-3.3,2.4-4.9l22.7-44.8
		c0.4-0.8,0.8-1.4,1.2-1.8s0.9-0.7,1.4-0.9c0.5-0.2,1.1-0.3,1.8-0.3s1.4,0,2.3,0h15.7v88.6h-18.1v-51c0-2.5,0.1-5.1,0.4-8
		l-23.5,45.6c-0.7,1.4-1.7,2.5-3,3.2c-1.2,0.7-2.6,1.1-4.2,1.1h-2.8c-1.6,0-3-0.4-4.2-1.1c-1.2-0.7-2.2-1.8-3-3.2l-23.6-45.6
		c0.2,1.4,0.3,2.8,0.4,4.2s0.1,2.7,0.1,3.9v51h-18.1v-88.6h15.7c0.9,0,1.7,0,2.3,0c0.7,0,1.3,0.1,1.8,0.3c0.5,0.2,1,0.5,1.4,0.9
		s0.8,1,1.2,1.8l22.8,45C239.6,412.3,240.3,413.9,241.1,415.6z"/>
	<path class="st0" d="M390.1,451.3h-15.9c-1.8,0-3.3-0.4-4.4-1.2c-1.2-0.8-2-1.9-2.4-3.2l-5.2-15.4h-33.7l-5.2,15.4
		c-0.4,1.1-1.2,2.2-2.4,3.1c-1.2,0.9-2.6,1.4-4.3,1.4h-16.1l34.3-88.6h21L390.1,451.3z M333.2,417.4h24.2l-8.2-24.3
		c-0.5-1.5-1.1-3.4-1.9-5.4c-0.7-2.1-1.4-4.3-2.1-6.8c-0.6,2.5-1.3,4.8-2,6.9c-0.7,2.1-1.3,3.9-1.9,5.5L333.2,417.4z"/>
	<path class="st0" d="M451.9,362.7V379H427v72.3h-20.6V379h-24.9v-16.3H451.9z"/>
	<path class="st0" d="M517.5,362.7v15.8h-36.4v20.7H509v15.2h-27.9v21.1h36.4v15.8h-57.1v-88.6H517.5z"/>
	<path class="st0" d="M549.7,418.5v32.8h-20.6v-88.6H558c6.4,0,11.9,0.7,16.4,2c4.5,1.3,8.2,3.2,11.1,5.5c2.9,2.4,4.9,5.1,6.2,8.3
		c1.3,3.2,1.9,6.7,1.9,10.5c0,2.9-0.4,5.6-1.2,8.2c-0.8,2.6-1.9,4.9-3.4,7.1c-1.5,2.2-3.4,4.1-5.6,5.8s-4.8,3.1-7.6,4.2
		c1.4,0.7,2.7,1.5,3.9,2.6c1.2,1,2.2,2.3,3.1,3.7l18.9,30.8h-18.6c-3.4,0-5.9-1.3-7.4-3.9l-14.7-25.7c-0.6-1.1-1.4-1.9-2.3-2.4
		s-2.1-0.7-3.7-0.7H549.7z M549.7,404.3h8.3c2.8,0,5.2-0.4,7.1-1.1c2-0.7,3.6-1.7,4.8-3c1.3-1.3,2.2-2.7,2.7-4.4
		c0.6-1.7,0.9-3.5,0.9-5.4c0-3.9-1.3-6.9-3.8-9.1s-6.5-3.3-11.8-3.3h-8.3V404.3z"/>
	<path class="st0" d="M632.6,451.3h-20.7v-88.6h20.7V451.3z"/>
	<path class="st0" d="M690.7,436.4c2.8,0,5.4-0.2,7.5-0.7s4.3-1.1,6.2-1.9v-13.4h-8.8c-1.3,0-2.3-0.3-3-1c-0.7-0.7-1.1-1.6-1.1-2.6
		v-11.3h31.5v37.4c-2.3,1.7-4.6,3.1-7.1,4.3c-2.5,1.2-5.1,2.2-7.8,3c-2.8,0.8-5.7,1.3-8.9,1.7c-3.1,0.4-6.5,0.5-10.1,0.5
		c-6.5,0-12.5-1.1-18-3.4c-5.5-2.3-10.3-5.5-14.3-9.5c-4-4-7.2-8.8-9.5-14.4s-3.4-11.5-3.4-18c0-6.6,1.1-12.7,3.3-18.2
		c2.2-5.5,5.3-10.3,9.4-14.3s9-7.1,14.8-9.4c5.8-2.2,12.2-3.3,19.4-3.3c3.7,0,7.2,0.3,10.4,0.9c3.2,0.6,6.2,1.4,9,2.5
		c2.7,1.1,5.2,2.3,7.5,3.8c2.3,1.5,4.3,3,6.1,4.7l-6,9.1c-0.6,0.9-1.2,1.5-2,2c-0.8,0.5-1.7,0.7-2.6,0.7c-1.2,0-2.5-0.4-3.8-1.2
		c-1.6-1-3.2-1.8-4.6-2.5c-1.4-0.7-2.9-1.3-4.4-1.7c-1.5-0.4-3.1-0.8-4.7-1c-1.7-0.2-3.5-0.3-5.6-0.3c-3.9,0-7.3,0.7-10.4,2
		c-3.1,1.4-5.7,3.3-7.9,5.7c-2.2,2.5-3.8,5.4-5,8.9c-1.2,3.5-1.8,7.3-1.8,11.6c0,4.7,0.6,8.9,1.9,12.5c1.3,3.6,3.1,6.7,5.4,9.2
		c2.3,2.5,5,4.4,8.2,5.7C683.6,435.8,687,436.4,690.7,436.4z"/>
	<path class="st0" d="M813,451.3h-20.7v-37.5h-36v37.5h-20.7v-88.6h20.7v37h36v-37H813V451.3z"/>
	<path class="st0" d="M891.9,362.7V379H867v72.3h-20.6V379h-24.9v-16.3H891.9z"/>
</g>
</svg>
