<?xml version="1.0" encoding="UTF-8" standalone="no"?>
<!DOCTYPE svg PUBLIC "-//W3C//DTD SVG 1.1//EN"
 "http://www.w3.org/Graphics/SVG/1.1/DTD/svg11.dtd">
<!-- Generated by graphviz version 2.47.3 (20210619.1520)
 -->
<!-- Title: dependencies Pages: 1 -->
<svg width="922pt" height="247pt"
 viewBox="0.00 0.00 922.00 246.80" xmlns="http://www.w3.org/2000/svg" xmlns:xlink="http://www.w3.org/1999/xlink">
<g id="graph0" class="graph" transform="scale(1 1) rotate(0) translate(4 242.8)">
<title>dependencies</title>
<polygon fill="white" stroke="transparent" points="-4,4 -4,-242.8 918,-242.8 918,4 -4,4"/>
<text text-anchor="middle" x="457" y="-8.2" font-family="sans-serif" font-size="14.00">dependencies</text>
<g id="clust1" class="cluster">
<title>cluster_AppModule</title>
<polygon fill="none" stroke="black" stroke-dasharray="1,5" points="8,-32.8 8,-230.8 298,-230.8 298,-32.8 8,-32.8"/>
</g>
<g id="clust2" class="cluster">
<title>cluster_AppModule_declarations</title>
<polygon fill="none" stroke="black" points="168,-40.8 168,-92.8 290,-92.8 290,-40.8 168,-40.8"/>
</g>
<g id="clust4" class="cluster">
<title>cluster_AppModule_imports</title>
<polygon fill="none" stroke="black" points="16,-40.8 16,-92.8 160,-92.8 160,-40.8 16,-40.8"/>
</g>
<g id="clust6" class="cluster">
<title>cluster_AppModule_bootstrap</title>
<polygon fill="none" stroke="black" points="96,-170.8 96,-222.8 220,-222.8 220,-170.8 96,-170.8"/>
</g>
<g id="clust14" class="cluster">
<title>cluster_FormPageModule</title>
<polygon fill="none" stroke="black" stroke-dasharray="1,5" points="306,-32.8 306,-157.8 598,-157.8 598,-32.8 306,-32.8"/>
</g>
<g id="clust15" class="cluster">
<title>cluster_FormPageModule_declarations</title>
<polygon fill="none" stroke="black" points="500,-40.8 500,-92.8 590,-92.8 590,-40.8 500,-40.8"/>
</g>
<g id="clust17" class="cluster">
<title>cluster_FormPageModule_imports</title>
<polygon fill="none" stroke="black" points="314,-40.8 314,-92.8 492,-92.8 492,-40.8 314,-40.8"/>
</g>
<g id="clust27" class="cluster">
<title>cluster_HomePageModule</title>
<polygon fill="none" stroke="black" stroke-dasharray="1,5" points="606,-32.8 606,-157.8 906,-157.8 906,-32.8 606,-32.8"/>
</g>
<g id="clust28" class="cluster">
<title>cluster_HomePageModule_declarations</title>
<polygon fill="none" stroke="black" points="804,-40.8 804,-92.8 898,-92.8 898,-40.8 804,-40.8"/>
</g>
<g id="clust30" class="cluster">
<title>cluster_HomePageModule_imports</title>
<polygon fill="none" stroke="black" points="614,-40.8 614,-92.8 796,-92.8 796,-40.8 614,-40.8"/>
</g>
<!-- AppComponent -->
<g id="node1" class="node">
<title>AppComponent</title>
<polygon fill="#ffffb3" stroke="black" points="281.94,-84.8 176.06,-84.8 176.06,-48.8 281.94,-48.8 281.94,-84.8"/>
<text text-anchor="middle" x="229" y="-62.6" font-family="Times,serif" font-size="14.00">AppComponent</text>
</g>
<!-- AppModule -->
<g id="node2" class="node">
<title>AppModule</title>
<polygon fill="#8dd3c7" stroke="black" points="199.66,-149.8 196.66,-153.8 175.66,-153.8 172.66,-149.8 116.34,-149.8 116.34,-113.8 199.66,-113.8 199.66,-149.8"/>
<text text-anchor="middle" x="158" y="-127.6" font-family="Times,serif" font-size="14.00">AppModule</text>
</g>
<!-- AppComponent&#45;&gt;AppModule -->
<g id="edge1" class="edge">
<title>AppComponent&#45;&gt;AppModule</title>
<path fill="none" stroke="black" d="M188.05,-84.91C188.05,-84.91 188.05,-103.79 188.05,-103.79"/>
<polygon fill="black" stroke="black" points="184.55,-103.79 188.05,-113.79 191.55,-103.79 184.55,-103.79"/>
</g>
<!-- AppComponent  -->
<g id="node4" class="node">
<title>AppComponent </title>
<polygon fill="#80b1d3" stroke="black" points="212.44,-214.8 103.56,-214.8 103.56,-178.8 212.44,-178.8 212.44,-214.8"/>
<text text-anchor="middle" x="158" y="-192.6" font-family="Times,serif" font-size="14.00">AppComponent </text>
</g>
<!-- AppModule&#45;&gt;AppComponent  -->
<g id="edge3" class="edge">
<title>AppModule&#45;&gt;AppComponent </title>
<path fill="none" stroke="black" stroke-dasharray="1,5" d="M158,-149.91C158,-149.91 158,-168.79 158,-168.79"/>
<polygon fill="black" stroke="black" points="154.5,-168.79 158,-178.79 161.5,-168.79 154.5,-168.79"/>
</g>
<!-- AppRoutingModule -->
<g id="node3" class="node">
<title>AppRoutingModule</title>
<polygon fill="#8dd3c7" stroke="black" points="152.27,-84.8 149.27,-88.8 128.27,-88.8 125.27,-84.8 23.73,-84.8 23.73,-48.8 152.27,-48.8 152.27,-84.8"/>
<text text-anchor="middle" x="88" y="-62.6" font-family="Times,serif" font-size="14.00">AppRoutingModule</text>
</g>
<!-- AppRoutingModule&#45;&gt;AppModule -->
<g id="edge2" class="edge">
<title>AppRoutingModule&#45;&gt;AppModule</title>
<path fill="none" stroke="black" d="M134.28,-84.91C134.28,-84.91 134.28,-103.79 134.28,-103.79"/>
<polygon fill="black" stroke="black" points="130.78,-103.79 134.28,-113.79 137.78,-103.79 130.78,-103.79"/>
</g>
<!-- FormPage -->
<g id="node5" class="node">
<title>FormPage</title>
<polygon fill="#ffffb3" stroke="black" points="581.55,-84.8 508.45,-84.8 508.45,-48.8 581.55,-48.8 581.55,-84.8"/>
<text text-anchor="middle" x="545" y="-62.6" font-family="Times,serif" font-size="14.00">FormPage</text>
</g>
<!-- FormPageModule -->
<g id="node6" class="node">
<title>FormPageModule</title>
<polygon fill="#8dd3c7" stroke="black" points="525.6,-149.8 522.6,-153.8 501.6,-153.8 498.6,-149.8 408.4,-149.8 408.4,-113.8 525.6,-113.8 525.6,-149.8"/>
<text text-anchor="middle" x="467" y="-127.6" font-family="Times,serif" font-size="14.00">FormPageModule</text>
</g>
<!-- FormPage&#45;&gt;FormPageModule -->
<g id="edge4" class="edge">
<title>FormPage&#45;&gt;FormPageModule</title>
<path fill="none" stroke="black" d="M516.89,-84.91C516.89,-84.91 516.89,-103.79 516.89,-103.79"/>
<polygon fill="black" stroke="black" points="513.39,-103.79 516.89,-113.79 520.39,-103.79 513.39,-103.79"/>
</g>
<!-- FormPageRoutingModule -->
<g id="node7" class="node">
<title>FormPageRoutingModule</title>
<polygon fill="#8dd3c7" stroke="black" points="484.21,-84.8 481.21,-88.8 460.21,-88.8 457.21,-84.8 321.79,-84.8 321.79,-48.8 484.21,-48.8 484.21,-84.8"/>
<text text-anchor="middle" x="403" y="-62.6" font-family="Times,serif" font-size="14.00">FormPageRoutingModule</text>
</g>
<!-- FormPageRoutingModule&#45;&gt;FormPageModule -->
<g id="edge5" class="edge">
<title>FormPageRoutingModule&#45;&gt;FormPageModule</title>
<path fill="none" stroke="black" d="M446.28,-84.91C446.28,-84.91 446.28,-103.79 446.28,-103.79"/>
<polygon fill="black" stroke="black" points="442.78,-103.79 446.28,-113.79 449.78,-103.79 442.78,-103.79"/>
</g>
<!-- HomePage -->
<g id="node8" class="node">
<title>HomePage</title>
<polygon fill="#ffffb3" stroke="black" points="889.92,-84.8 812.08,-84.8 812.08,-48.8 889.92,-48.8 889.92,-84.8"/>
<text text-anchor="middle" x="851" y="-62.6" font-family="Times,serif" font-size="14.00">HomePage</text>
</g>
<!-- HomePageModule -->
<g id="node9" class="node">
<title>HomePageModule</title>
<polygon fill="#8dd3c7" stroke="black" points="831.47,-149.8 828.47,-153.8 807.47,-153.8 804.47,-149.8 710.53,-149.8 710.53,-113.8 831.47,-113.8 831.47,-149.8"/>
<text text-anchor="middle" x="771" y="-127.6" font-family="Times,serif" font-size="14.00">HomePageModule</text>
</g>
<!-- HomePage&#45;&gt;HomePageModule -->
<g id="edge6" class="edge">
<title>HomePage&#45;&gt;HomePageModule</title>
<path fill="none" stroke="black" d="M821.89,-84.91C821.89,-84.91 821.89,-103.79 821.89,-103.79"/>
<polygon fill="black" stroke="black" points="818.39,-103.79 821.89,-113.79 825.39,-103.79 818.39,-103.79"/>
</g>
<!-- HomePageRoutingModule -->
<g id="node10" class="node">
<title>HomePageRoutingModule</title>
<polygon fill="#8dd3c7" stroke="black" points="788.09,-84.8 785.09,-88.8 764.09,-88.8 761.09,-84.8 621.91,-84.8 621.91,-48.8 788.09,-48.8 788.09,-84.8"/>
<text text-anchor="middle" x="705" y="-62.6" font-family="Times,serif" font-size="14.00">HomePageRoutingModule</text>
</g>
<!-- HomePageRoutingModule&#45;&gt;HomePageModule -->
<g id="edge7" class="edge">
<title>HomePageRoutingModule&#45;&gt;HomePageModule</title>
<path fill="none" stroke="black" d="M749.28,-84.91C749.28,-84.91 749.28,-103.79 749.28,-103.79"/>
<polygon fill="black" stroke="black" points="745.78,-103.79 749.28,-113.79 752.78,-103.79 745.78,-103.79"/>
</g>
</g>
</svg>
